subject01_walk1_RRA_states
nRows=5
nColumns=47

# SIMM Motion File Header:
name subject01_walk1_RRA_states
datacolumns 47
datarows 5
otherdata 1
range 0.86900000000000033000 0.87100000000000033000
endheader
time	pelvis_tx	pelvis_ty	pelvis_tz	pelvis_tilt	pelvis_list	pelvis_rotation	hip_flexion_r	hip_adduction_r	hip_rotation_r	knee_angle_r	ankle_angle_r	subtalar_angle_r	mtp_angle_r	hip_flexion_l	hip_adduction_l	hip_rotation_l	knee_angle_l	ankle_angle_l	subtalar_angle_l	mtp_angle_l	lumbar_extension	lumbar_bending	lumbar_rotation	pelvis_tx_u	pelvis_ty_u	pelvis_tz_u	pelvis_tilt_u	pelvis_list_u	pelvis_rotation_u	hip_flexion_r_u	hip_adduction_r_u	hip_rotation_r_u	knee_angle_r_u	ankle_angle_r_u	subtalar_angle_r_u	mtp_angle_r_u	hip_flexion_l_u	hip_adduction_l_u	hip_rotation_l_u	knee_angle_l_u	ankle_angle_l_u	subtalar_angle_l_u	mtp_angle_l_u	lumbar_extension_u	lumbar_bending_u	lumbar_rotation_u
      0.86900000000000033000	      0.61284044079181454000	      1.01888986077193140000	      0.02954085223138006400	      4.79063295399382130000	     -1.51791870153397700000	      3.22635251138172000000	     10.24192380393127900000	      1.90660332944864660000	     -7.03242951579831030000	    -20.65886743748290800000	      5.42142843674159190000	     -0.00238817330173996410	      0.03912102833650652600	      5.07753134924211570000	     -5.94817700048527430000	     -3.19896825326031160000	    -66.78209193794877800000	     -5.28972491884793430000	      0.00497461748350259280	      0.02941469912388791300	    -15.23574609741896100000	      4.73216911641562720000	     -3.74785253054871600000	     -0.02960887052737829600	      0.18630196055452641000	      0.19725279831570589000	      5.19188995104355660000	     -3.16979377798473600000	    -10.90274144632094900000	   -109.17241503921544000000	     25.92423714087929200000	     12.38680356854611900000	     75.49644765014531300000	     21.23182404694935600000	      0.45800109058557104000	     -0.68421123526944994000	    145.22523673588057000000	    -25.99250584645141200000	    -37.50078798815465600000	   -114.28293344477294000000	     63.21893774352431400000	     -0.03100152170930049400	      0.00957459436919158060	     -4.22089017973319520000	     -5.45943411025948680000	     37.76594243813320200000
      0.86950000000000027000	      0.61282555815773088000	      1.01898300164686880000	      0.02963935926198024400	      4.79322992118907540000	     -1.51943716331305810000	      3.22086747299974170000	     10.18731817110871100000	      1.91948510572463520000	     -7.02617230789513150000	    -20.62106097660850800000	      5.43200374067415840000	     -0.00215770854802890560	      0.03877744959977617900	      5.15004090918415080000	     -5.96101205271480160000	     -3.21760068649799360000	    -66.83882150238285600000	     -5.25788827387945630000	      0.00495904968079798490	      0.02941908557889366300	    -15.23786666394021200000	      4.72936168865535580000	     -3.72896191707710930000	     -0.02992166145952361600	      0.18626013776269279000	      0.19677472975147961000	      5.19589573136117980000	     -2.90409296494014190000	    -11.03749854111776900000	   -109.24982164314926000000	     25.60276897239406300000	     12.64206841083257700000	     75.72878789812034500000	     21.06985596508684100000	      0.46374520161753902000	     -0.68978413063336264000	    144.81326142172466000000	    -25.34735336448603200000	    -37.02865923837060100000	   -112.63586528465268000000	     64.12512171973223500000	     -0.03126368110042740400	      0.00796501244270810680	     -4.26131371234836640000	     -5.77011354658174640000	     37.79644204617557800000
      0.87000000000000033000	      0.61281051912633455000	      1.01907611950843390000	      0.02973762637299833700	      4.79582876382485070000	     -1.52082283972162770000	      3.21531492204308660000	     10.13267428836578300000	      1.93220600582346510000	     -7.01978738535824400000	    -20.58313928294220900000	      5.44249896513921260000	     -0.00192446052262585430	      0.03843122517668492300	      5.22234487197755560000	     -5.97352401194394570000	     -3.23599662816049660000	    -66.89472834218281600000	     -5.22560232661230820000	      0.00494335490960559790	      0.02942266653117221400	    -15.24000734684822300000	      4.72639917156115620000	     -3.71005615226697790000	     -0.03023447457606814500	      0.18620990626859474000	      0.19629313008088978000	      5.19938634855444270000	     -2.63866195460256540000	    -11.17279920732449300000	   -109.32539433309243000000	     25.28074212586980400000	     12.89770233566795800000	     75.95733544298681700000	     20.91189678720115100000	      0.46934744307989384000	     -0.69542348618599015000	    144.40285414574285000000	    -24.70014772957957700000	    -36.55482377706804400000	   -110.99203260619026000000	     65.01612741138593800000	     -0.03151997104114238200	      0.00636990255884995090	     -4.30135153741257350000	     -6.07978218145720200000	     37.82655749434417200000
      0.87050000000000027000	      0.61279532366931200000	      1.01916921015562870000	      0.02983565182156468600	      4.79842922136585240000	     -1.52207588117249480000	      3.20969458358007160000	     10.07799309005648400000	      1.94476577168130290000	     -7.01327454705457940000	    -20.54510429457159800000	      5.45291636960036370000	     -0.00168853281794762470	      0.03808189492600095500	      5.29444403027047630000	     -5.98571188257444750000	     -3.25415524263837550000	    -66.94981408185897500000	     -5.19287468177869550000	      0.00492753277090289460	      0.02942545754547025400	    -15.24216795143547500000	      4.72328208460413460000	     -3.69113542052925150000	     -0.03054736886323435700	      0.18615128863352348000	      0.19580810512228194000	      5.20236016595470830000	     -2.37356488212766070000	    -11.30863993497487700000	   -109.39908980691402000000	     24.95825524856397900000	     13.15368490473136700000	     76.18196985427263700000	     20.75830638309998500000	      0.47397408603302715000	     -0.70180485834072803000	    143.99404868404525000000	    -24.05103318270713000000	    -36.07938177310112600000	   -109.35148292231321000000	     65.89191982883370700000	     -0.03175868415420729500	      0.00478731633740907360	     -4.34100509738233150000	     -6.38838333805103000000	     37.85630570496284300000
      0.87100000000000033000	      0.61277997174134324000	      1.01926226939741800000	      0.02993343391066025800	      4.80103103869548510000	     -1.52319646198627790000	      3.20400619768986590000	     10.02327550616007600000	      1.95716418400770120000	     -7.00663365593480410000	    -20.50695794819080900000	      5.46325794025026390000	     -0.00145052047029454100	      0.03772940586624262000	      5.36633919157976800000	     -5.99757473872663290000	     -3.27207575258472930000	    -67.00408037867211400000	     -5.15971294942151810000	      0.00491159728794725740	      0.02942745621303884800	    -15.24434828829593200000	      4.72001096724766620000	     -3.67219991231272180000	     -0.03086035811194202600	      0.18608427209676565000	      0.19531967319413127000	      5.20482243330168700000	     -2.10881067789498820000	    -11.44498604010528300000	   -109.47094203960388000000	     24.63530303775460300000	     13.40993292480720100000	     76.40280078264484600000	     20.60870593823296200000	      0.47845310218005482000	     -0.70823052414458243000	    143.58686890599321000000	    -23.40007863806312100000	    -35.60239511607145600000	   -107.71425642292076000000	     66.75245508249987800000	     -0.03199176418850074900	      0.00321902433535022160	     -4.38027675044206170000	     -6.69591159206707240000	     37.88565794991850300000
